# xmcd CD database file
#
# Track frame offsets:
#	150
#	18867
#	37705
#
# Disc length: 580 seconds
#
# Revision: 0
# Processed by: cddbd v1.5.1PL0 Copyright (c) Steve Scherf et al.
# Submitted via: CDex 1.51
#
DISCID=11024203
DTITLE=忍足侑士 (CV：木内秀信) - 眼鏡をはずす夜 (初回生産完全限定盤)
DYEAR=2004
DGENRE=JPop
TTITLE0=眼鏡をはずす夜
TTITLE1=眼鏡をはずす夜（オリジナル・カラオケ）
TTITLE2=眼鏡トーク
EXTD=YEAR: 2004
EXTT0=
EXTT1=
EXTT2=
PLAYORDER=
